<svg xmlns="http://www.w3.org/2000/svg" id="Capa_1" viewBox="0 0 1536.55 1080"><defs><style>      .st0 {        fill: #fff;      }    </style></defs><path class="st0" d="M128.01,539.43c0-144.62,0-289.23,0-433.85,0-2.51-.09-5.03.07-7.53.36-5.39,3.12-8.39,8.5-9.22,1.85-.28,3.76-.26,5.64-.26,76.81-.01,153.62-.07,230.43.02,32.06.04,57.35,21.18,63.04,52.24.61,3.32.69,6.65.69,10,0,259.3.02,518.61-.02,777.91,0,32.66-24.2,58.94-56.6,61.98-5.43.51-10.85.71-16.29.71-72.62-.01-145.25,0-217.87-.01-3.34,0-6.71.19-10-.61-4.78-1.16-7.12-3.82-7.49-8.76-.19-2.5-.09-5.02-.09-7.53,0-145.03,0-290.07,0-435.1Z"></path><path class="st0" d="M643,637.38c0-111.33.28-222.67-.15-334-.16-39.77-7.87-78.23-26-114.05-19.07-37.66-46.86-66.98-84.24-86.96-2.68-1.43-6.42-2.55-5.37-6.63,1.11-4.31,5.11-3.62,8.38-3.63,45.62-.08,91.25.19,136.87-.29,24.27-.26,48.54-.99,72.8-.5,21.72.44,43.41,1.37,64.7,6.98,68.46,18.03,122.8,75.68,136.41,145.04,2.71,13.83,3.75,27.73,3.73,41.79-.08,81.62-.04,163.23-.04,244.85,0,130.8,0,261.59-.02,392.39,0,5.22.23,10.46-.72,15.65-5.2,28.39-26.75,48.32-55.66,51.5-3.96.44-7.91.66-11.9.66-73.67-.01-147.34,0-221-.03-3.13,0-6.31,0-9.38-.5-5.07-.83-7.69-3.76-8.22-8.87-.26-2.49-.15-5.02-.15-7.53,0-111.96,0-223.93,0-335.89h-.04Z"></path><path class="st0" d="M1121.86,377.38c0-87.06,0-174.12,0-261.18,0-3.34-.17-6.69.56-10.01,1.9-8.6,9.07-14.09,17.81-13.48,64.82,4.49,122.12,27.64,170.92,70.52,48.07,42.25,79.37,94.92,91.52,157.86,16.82,87.21-2.34,166.44-57.85,235.87-45.55,56.97-105.39,90.58-177.25,102.79-8.86,1.51-17.81,2.62-26.81,2.89-11.55.34-17.96-5.61-18.79-17.17-.19-2.71-.11-5.44-.11-8.16,0-86.64,0-173.29,0-259.93Z"></path></svg>