<svg xmlns="http://www.w3.org/2000/svg" id="Capa_1" data-name="Capa 1" viewBox="0 0 720 720"><defs><style>      .cls-1 {        fill: none;        stroke: #fff;        stroke-miterlimit: 10;        stroke-width: 25.15px;      }      .cls-2 {        fill: #fff;      }    </style></defs><rect x=".28" y="0" width="723.96" height="723.96"></rect><g><g><path class="cls-2" d="M292.29,166c40.63-1.78,87.34-1.96,127.98-.44,91.67,3.44,126.83,38.48,130.27,130.32,1.48,39.43,1.48,85.1,0,124.54-3.43,91.71-38.65,126.89-130.27,130.32-39.42,1.48-85.07,1.48-124.49,0-91.75-3.44-126.83-38.55-130.27-130.32-1.48-39.43-1.48-85.1,0-124.54,3.36-89.68,36.52-125.93,126.78-129.88ZM355.17,200.02c-71.93.13-149.03-12.63-154.31,81.46-1.62,28.86-.06,59.12.11,87.75.41,70.46-12.35,140.93,80.41,146.15,28.4,1.6,58.29.06,86.41-.11,70.4-.41,142.17,12.75,147.4-80.44,1.57-27.96.04-57.49-.11-85.14-.37-70.86,13.32-143.5-80.41-148.77-24.88-1.4-54.34-.95-79.5-.91Z"></path><path class="cls-2" d="M456.78,358.15c0,54.57-44.22,98.8-98.76,98.8s-98.76-44.23-98.76-98.8,44.22-98.8,98.76-98.8,98.76,44.23,98.76,98.8ZM422.2,358.14c0-35.46-28.73-64.2-64.18-64.2s-64.18,28.75-64.18,64.2,28.73,64.2,64.18,64.2,64.18-28.75,64.18-64.2Z"></path><ellipse class="cls-2" cx="460.8" cy="255.34" rx="23.05" ry="23.05"></ellipse></g><circle class="cls-1" cx="360" cy="360" r="324.15"></circle></g></svg>