<svg xmlns="http://www.w3.org/2000/svg" id="Capa_1" data-name="Capa 1" viewBox="0 0 720 720"><defs><style>      .cls-1 {        stroke-width: 25.15px;      }      .cls-1, .cls-2 {        fill: none;        stroke: #fff;        stroke-miterlimit: 10;      }      .cls-3 {        fill: #fff;      }      .cls-2 {        stroke-width: .93px;      }    </style></defs><rect x=".28" y="0" width="723.96" height="723.96"></rect><g><g><path class="cls-2" d="M291.38,227.18h-143.09v258.03c39.93-1.41,81.13,1.86,120.93.05,55.36-2.52,98.6-24.69,93.36-87.13-2.25-26.77-20.98-45.46-45.71-53.08,12.42-8.67,23.45-16.76,29.37-31.45,17.48-43.31-10.42-81.91-54.86-86.42ZM524.63,244.2h-104.54v26.2h104.54v-26.2ZM566.45,404v-24.23c0-34.02-33.22-72.92-64.64-83.21-94.62-30.99-161.59,87.83-100.04,160.53,44.31,52.33,144.23,40.86,159.45-30.81h-42.47c-23.19,40.79-86.16,30.61-88.24-19.01l2-3.26h133.94Z"></path><g><rect class="cls-3" x="420.1" y="244.2" width="104.54" height="26.2"></rect><path class="cls-3" d="M566.45,404h-133.94l-2,3.26c2.07,49.62,65.05,59.8,88.24,19.01h42.47c-15.22,71.68-115.14,83.14-159.45,30.81-61.55-72.7,5.42-191.52,100.04-160.53,31.42,10.29,64.64,49.19,64.64,83.21v24.23ZM514.18,371.25c-6.82-53.53-77.07-53.55-82.32,0h82.32Z"></path><path class="cls-3" d="M291.38,227.18c44.43,4.51,72.33,43.11,54.86,86.42-5.93,14.69-16.96,22.77-29.37,31.45,24.74,7.62,43.47,26.31,45.71,53.08,5.24,62.45-37.99,84.62-93.36,87.13-39.8,1.81-80.99-1.46-120.93-.05V227.18h143.09ZM204.49,330.65h63.38c4.31,0,16.74-5.41,20.3-8.47,13.82-11.84,11.2-36.38-4.35-45.5-1.89-1.11-11.88-4.97-13.34-4.97h-65.99v58.94ZM204.49,440.67h69.91c3.35,0,14.88-4.64,18.08-6.77,21.92-14.63,18.75-50.18-6.61-59.73-2.98-1.12-14.18-4.23-16.69-4.23h-62.72l-1.96,1.96v68.76Z"></path></g></g><circle class="cls-1" cx="360" cy="360" r="324.15"></circle></g></svg>